<svg role="img" viewBox="0 0 24 24" fill="#FFFFFF" xmlns="http://www.w3.org/2000/svg">
    <title>Telegram</title>
    <path d="M12 0C5.37302 0 0 5.37302 0 12C0 18.627 5.37302 24 12 24C18.627 24 24 18.627 24 12C24 5.37302 18.627 0 12 0ZM17.463 8.24702L15.704 16.457C15.566 17.068 15.205 17.216 14.682 16.938L11.564 14.652C11.204 14.402 11.206 14.133 11.636 13.829L14.5 11.796C14.84 11.551 14.4 11.327 13.973 11.57L10.078 13.778C9.62402 14.036 9.24602 14.008 8.81602 13.866L6.26602 13.02C5.57402 12.793 5.56002 12.335 6.40402 12.02L16.669 8.36702C17.229 8.17202 17.722 8.46002 17.463 8.24702Z"/>
</svg>
